<?xml version="1.0" encoding="UTF-8"?>
<svg xmlns="http://www.w3.org/2000/svg" width="212" height="211" viewBox="0 0 212 211" fill="none">
  <path d="M212 0H0V211H212V0Z" fill="#19486A"></path>
  <path d="M132 142.7C132 132.442 123.786 124.06 113.554 123.69C110.921 116.306 103.823 111 95.4982 111C87.1758 111 80.0777 116.306 77.4428 123.69C67.2109 124.061 59 132.442 59 142.7C59 148.787 61.8962 154.212 66.3895 157.697C65.9016 159.375 65.633 161.145 65.633 162.978C65.633 173.465 74.2231 182 84.7839 182C88.7911 182 92.5124 180.768 95.5914 178.669C98.6338 180.692 102.287 181.873 106.215 181.873C116.774 181.873 125.364 173.339 125.364 162.851C125.364 161.056 125.108 159.32 124.639 157.674C129.115 154.189 132 148.773 132 142.7ZM110.793 130.024C110.793 137.639 105.121 143.944 97.7549 145.034C97.6352 144.271 97.5557 143.494 97.5557 142.699C97.5557 135.082 103.228 128.777 110.593 127.688C110.713 128.451 110.793 129.228 110.793 130.024ZM95.5703 173.734C92.707 170.972 90.9217 167.116 90.9217 162.851C90.9217 158.65 92.6494 154.843 95.4297 152.09C98.2912 154.852 100.078 158.709 100.078 162.977C100.078 167.175 98.3524 170.982 95.5703 173.734ZM80.4057 127.687C87.7696 128.776 93.4443 135.082 93.4443 142.699C93.4443 143.493 93.363 144.27 93.2433 145.034C85.8775 143.944 80.2047 137.639 80.2047 130.024C80.2065 129.228 80.286 128.451 80.4057 127.687ZM91.8089 149.495C89.2927 154.467 84.1233 157.893 78.1509 157.893C75.6182 157.893 73.2309 157.267 71.1258 156.179C73.642 151.208 78.8132 147.782 84.7857 147.782C87.3192 147.782 89.7029 148.408 91.8089 149.495ZM99.1409 149.393C101.26 148.29 103.662 147.656 106.216 147.656C112.229 147.656 117.427 151.131 119.926 156.156C117.807 157.26 115.401 157.893 112.851 157.893C106.836 157.893 101.638 154.419 99.1409 149.393ZM95.4991 114.83C101.766 114.83 107.157 118.595 109.519 123.966C103.297 125.056 98.1039 129.135 95.4991 134.657C92.8979 129.135 87.703 125.055 81.481 123.966C83.8428 118.595 89.2342 114.83 95.4991 114.83ZM62.8564 142.7C62.8564 134.87 68.8463 128.41 76.5099 127.593C76.4085 128.39 76.3491 129.2 76.3491 130.024C76.3491 135.585 78.7657 140.597 82.6058 144.078C76.2541 144.797 70.8353 148.61 67.9235 153.964C64.8226 151.182 62.8564 147.169 62.8564 142.7ZM69.4904 162.977C69.4904 161.897 69.6064 160.844 69.8248 159.828C72.3446 161.041 75.1687 161.723 78.1499 161.723C81.503 161.723 84.6523 160.86 87.396 159.351C87.1831 160.486 87.0652 161.655 87.0652 162.85C87.0652 167.989 89.1338 172.655 92.4786 176.083C90.2146 177.4 87.5897 178.169 84.7848 178.169C76.3501 178.169 69.4904 171.353 69.4904 162.977ZM121.511 162.851C121.511 171.226 114.65 178.043 106.217 178.043C103.472 178.043 100.904 177.312 98.6758 176.05C101.928 172.639 103.935 168.036 103.935 162.978C103.935 161.733 103.808 160.516 103.577 159.337C106.328 160.856 109.488 161.724 112.851 161.724C115.842 161.724 118.677 161.037 121.201 159.815C121.404 160.797 121.511 161.812 121.511 162.851ZM108.511 143.966C112.283 140.489 114.65 135.527 114.65 130.024C114.65 129.2 114.591 128.39 114.489 127.593C122.154 128.408 128.144 134.87 128.144 142.7C128.144 147.148 126.198 151.142 123.119 153.925C120.238 148.559 114.846 144.722 108.511 143.966Z" fill="white"></path>
  <path d="M68.8935 34.1953H73.001C75.7965 34.1953 76.817 35.5802 76.817 37.8885V41.3643C76.817 43.6726 75.7965 45.0831 73.001 45.0831H71.6635V50.6727H68.8935V34.1953ZM71.6635 42.9448H72.6852C73.6328 42.9448 74.0459 42.4832 74.0459 41.5842V37.7925C74.0459 36.8935 73.6328 36.4549 72.6852 36.4549H71.6635V42.9448Z" fill="white"></path>
  <path d="M76.8388 50.672L79.9501 34.1946H83.11L86.2456 50.672H83.4016L82.8914 47.6591H79.9501L79.4654 50.672H76.8388ZM80.3146 45.448H82.5257L81.4322 38.8379H81.4067L80.3146 45.448Z" fill="white"></path>
  <path d="M90.1539 43.1142V50.672H87.384V34.1946H91.4186C94.2128 34.1946 95.2345 35.5795 95.2345 37.8878V40.003C95.2345 41.7767 94.6016 42.8214 93.0222 43.1871L95.6718 50.672H92.7562L90.1539 43.1142ZM90.1539 41.5835H91.0784C92.026 41.5835 92.439 41.0976 92.439 40.2216V37.7919C92.439 36.8929 92.026 36.4543 91.0784 36.4543H90.1539V41.5835Z" fill="white"></path>
  <path d="M96.1809 34.1946H103.546V36.4543H101.26V50.672H98.4649V36.4543H96.1809V34.1946Z" fill="white"></path>
  <path d="M107.163 40.3188V50.672H104.83V34.1946H107.551L110.541 43.6488V34.1946H112.849V50.672H110.419L107.163 40.3188Z" fill="white"></path>
  <path d="M114.426 34.1946H121.036V36.4543H117.196V41.1692H119.943V43.4046H117.196V48.4111H121.036V50.6708H114.426V34.1946Z" fill="white"></path>
  <path d="M125.288 43.1142V50.672H122.518V34.1946H126.553C129.347 34.1946 130.369 35.5795 130.369 37.8878V40.003C130.369 41.7767 129.736 42.8214 128.157 43.1871L130.806 50.672H127.891L125.288 43.1142ZM125.288 41.5835H126.213C127.16 41.5835 127.573 41.0976 127.573 40.2216V37.7919C127.573 36.8929 127.16 36.4543 126.213 36.4543H125.288V41.5835Z" fill="white"></path>
  <path d="M131.606 47.1244V44.9121H134.182V47.1729C134.182 48.0963 134.595 48.6308 135.543 48.6308C136.418 48.6308 136.807 48.0477 136.807 47.1729V46.54C136.807 45.5924 136.418 45.0093 135.566 44.2074L133.938 42.5795C132.358 41.0244 131.63 40.0769 131.63 38.1804V37.6215C131.63 35.5793 132.821 34 135.518 34C138.287 34 139.382 35.3619 139.382 37.743V39.0794H136.855V37.6459C136.855 36.6983 136.418 36.2366 135.543 36.2366C134.764 36.2366 134.231 36.674 134.231 37.5973V37.9374C134.231 38.8607 134.741 39.3965 135.543 40.1728L137.317 41.9222C138.823 43.453 139.553 44.3763 139.553 46.1998V47.0017C139.553 49.2613 138.337 50.8662 135.519 50.8662C132.699 50.8662 131.606 49.2869 131.606 47.1244Z" fill="white"></path>
  <path d="M146.455 43.4057H143.781V50.6732H141.011V34.1957H143.781V41.1704H146.455V34.1957H149.249V50.6732H146.455V43.4057Z" fill="white"></path>
  <path d="M150.826 34.1946H153.596V50.672H150.826V34.1946Z" fill="white"></path>
  <path d="M155.2 34.1946H159.307C162.103 34.1946 163.123 35.5795 163.123 37.8878V41.3636C163.123 43.6719 162.103 45.0824 159.307 45.0824H157.97V50.672H155.2V34.1946ZM157.97 42.9442H158.991C159.939 42.9442 160.352 42.4825 160.352 41.5835V37.7919C160.352 36.8929 159.939 36.4543 158.991 36.4543H157.97V42.9442Z" fill="white"></path>
  <path d="M164.409 47.1244V44.9121H166.986V47.1729C166.986 48.0963 167.399 48.6308 168.346 48.6308C169.221 48.6308 169.61 48.0477 169.61 47.1729V46.54C169.61 45.5924 169.221 45.0093 168.369 44.2074L166.741 42.5795C165.161 41.0244 164.433 40.0769 164.433 38.1804V37.6215C164.433 35.5793 165.622 34 168.321 34C171.091 34 172.185 35.3619 172.185 37.743V39.0794H169.658V37.6459C169.658 36.6983 169.221 36.2366 168.346 36.2366C167.567 36.2366 167.034 36.674 167.034 37.5973V37.9374C167.034 38.8607 167.544 39.3965 168.346 40.1728L170.12 41.9222C171.626 43.453 172.357 44.3763 172.357 46.1998V47.0017C172.357 49.2613 171.14 50.8662 168.322 50.8662C165.503 50.8662 164.409 49.2869 164.409 47.1244Z" fill="white"></path>
  <path d="M68.8934 57.2775H75.3821V59.5371H71.6646V64.2521H74.4357V66.4875H71.6646V73.7549H68.8946V57.2775H68.8934Z" fill="white"></path>
  <path d="M76.3517 69.5012V61.5304C76.3517 58.9536 77.6152 57.0827 80.5309 57.0827C83.4721 57.0827 84.7356 58.9548 84.7356 61.5304V69.5012C84.7356 72.0536 83.4721 73.9489 80.5309 73.9489C77.6152 73.9489 76.3517 72.0536 76.3517 69.5012ZM81.9657 69.9398V61.093C81.9657 60.0968 81.5283 59.3922 80.5309 59.3922C79.559 59.3922 79.1217 60.098 79.1217 61.093V69.9398C79.1217 70.936 79.559 71.6406 80.5309 71.6406C81.5283 71.6406 81.9657 70.936 81.9657 69.9398Z" fill="white"></path>
  <path d="M89.0836 66.1971V73.7549H86.3136V57.2775H90.3483C93.1425 57.2775 94.1642 58.6624 94.1642 60.9707V63.0858C94.1642 64.8596 93.5312 65.9043 91.9519 66.27L94.6016 73.7549H91.6858L89.0836 66.1971ZM89.0836 64.6664H90.0081C90.9557 64.6664 91.3687 64.1804 91.3687 63.3045V60.8747C91.3687 59.9757 90.9557 59.5371 90.0081 59.5371H89.0836V64.6664Z" fill="white"></path>
  <path d="M97.9048 57.2775H105.269V59.5371H102.984V73.7549H100.189V59.5371H97.9048V57.2775Z" fill="white"></path>
  <path d="M111.997 66.4888H109.324V73.7563H106.554V57.2788H109.324V64.2535H111.997V57.2788H114.792V73.7563H111.997V66.4888Z" fill="white"></path>
  <path d="M116.37 57.2775H122.98V59.5371H119.14V64.2521H121.887V66.4875H119.14V71.494H122.98V73.7537H116.37V57.2775Z" fill="white"></path>
  <path d="M131.193 64.9574H135.13V73.7555H133.138V71.9575C132.773 73.1979 131.996 73.9511 130.488 73.9511C128.107 73.9511 127.013 72.0559 127.013 69.5035V61.5326C127.013 58.9558 128.254 57.0849 131.17 57.0849C134.232 57.0849 135.131 58.7857 135.131 61.2167V62.6746H132.604V60.9981C132.604 59.9776 132.216 59.3944 131.218 59.3944C130.221 59.3944 129.783 60.1003 129.783 61.0953V69.942C129.783 70.9382 130.198 71.6428 131.144 71.6428C132.043 71.6428 132.506 71.1326 132.506 70.0635V67.1478H131.193V64.9574Z" fill="white"></path>
  <path d="M136.707 69.5012V61.5304C136.707 58.9536 137.971 57.0827 140.886 57.0827C143.827 57.0827 145.091 58.9548 145.091 61.5304V69.5012C145.091 72.0536 143.827 73.9489 140.886 73.9489C137.971 73.9489 136.707 72.0536 136.707 69.5012ZM142.321 69.9398V61.093C142.321 60.0968 141.884 59.3922 140.886 59.3922C139.914 59.3922 139.477 60.098 139.477 61.093V69.9398C139.477 70.936 139.914 71.6406 140.886 71.6406C141.884 71.6406 142.321 70.936 142.321 69.9398Z" fill="white"></path>
  <path d="M145.866 73.7549L148.976 57.2775H152.136L155.271 73.7549H152.427L151.917 70.742H148.976L148.491 73.7549H145.866ZM149.342 68.5309H151.553L150.459 61.9208H150.434L149.342 68.5309Z" fill="white"></path>
  <path d="M156.411 57.2775H159.181V71.4952H162.487V73.7549H156.411V57.2775Z" fill="white"></path>
  <path d="M163.482 70.207V67.9947H166.059V70.2556C166.059 71.1789 166.472 71.7135 167.419 71.7135C168.294 71.7135 168.683 71.1303 168.683 70.2556V69.6227C168.683 68.675 168.294 68.0919 167.442 67.2901L165.814 65.6621C164.234 64.1071 163.506 63.1595 163.506 61.2631V60.7042C163.506 58.662 164.696 57.0827 167.394 57.0827C170.164 57.0827 171.258 58.4445 171.258 60.8257V62.1621H168.731V60.7285C168.731 59.7809 168.294 59.3193 167.419 59.3193C166.641 59.3193 166.107 59.7566 166.107 60.6799V61.0201C166.107 61.9434 166.617 62.4792 167.419 63.2555L169.193 65.0049C170.699 66.5356 171.43 67.459 171.43 69.2825V70.0843C171.43 72.344 170.213 73.9489 167.395 73.9489C164.576 73.9489 163.482 72.3695 163.482 70.207Z" fill="white"></path>
  <path d="M36.3944 34.3536V73.7704H29.7672V43.5964H29.7077L25.0571 48.4219H25V41.5032L31.1048 34.3536H36.3944Z" fill="white"></path>
  <path d="M39.4172 34.3536H56.0465V40.4572L47.3832 73.7704H40.8107L49.649 39.7586H39.4172V34.3536Z" fill="white"></path>
</svg>
